Coordinates
version=1
nRows=27
nColumns=12
inDegrees=yes

Units are S.I. units (second, meters, Newtons, ...)
Angles are in degrees

endheader
time	SC_y	SC_z	SC_x	AC_y	AC_z	AC_x	GH_y	GH_z	GH_yy	EL_x	PS_y
       0.0              -34.12          29.78          35.24          69.73         -7.302         -10.24          45.44          33.18          128.3          36.89          86.73
   0.04807              -34.12          29.77          35.24          69.73           -7.3         -10.24          45.41          33.17          128.3          36.89          86.74
   0.09615              -34.12          29.77          35.23          69.73         -7.299         -10.24          45.38          33.16          128.3           36.9          86.74
    0.1442              -34.13          29.77          35.23          69.72         -7.297         -10.24          45.34          33.16          128.3           36.9          86.74
    0.1923              -34.13          29.76          35.23          69.72         -7.296         -10.24          45.31          33.15          128.3          36.91          86.75
    0.2404              -34.14          29.76          35.23          69.72         -7.294         -10.24          45.27          33.14          128.3          36.91          86.75
    0.2884              -34.14          29.75          35.23          69.71         -7.292         -10.24          45.23          33.13          128.3          36.92          86.75
    0.3365              -34.14          29.75          35.23          69.71          -7.29         -10.24          45.19          33.12          128.3          36.92          86.76
    0.3846              -34.15          29.75          35.23           69.7         -7.288         -10.23          45.14           33.1          128.3          36.93          86.76
    0.4327              -34.16          29.74          35.22           69.7         -7.286         -10.23          45.09          33.09          128.3          36.93          86.77
    0.4807              -34.16          29.73          35.22           69.7         -7.283         -10.23          45.04          33.08          128.3          36.94          86.77
    0.5288              -34.17          29.73          35.22          69.69         -7.281         -10.23          44.98          33.06          128.3          36.94          86.78
    0.5769              -34.17          29.72          35.22          69.69         -7.278         -10.23          44.92          33.05          128.3          36.95          86.79
     0.625              -34.18          29.71          35.22          69.68         -7.275         -10.22          44.86          33.03          128.3          36.96          86.79
     0.673              -34.19          29.71          35.21          69.67         -7.271         -10.22          44.78          33.01          128.3          36.97           86.8
    0.7211               -34.2           29.7          35.21          69.67         -7.268         -10.22          44.71          32.99          128.3          36.98          86.81
    0.7692              -34.21          29.69          35.21          69.66         -7.264         -10.22          44.62          32.97          128.3          36.99          86.82
    0.8173              -34.22          29.68          35.21          69.65          -7.26         -10.21          44.53          32.94          128.3           37.0          86.83
    0.8653              -34.23          29.67           35.2          69.64         -7.255         -10.21          44.43          32.92          128.3          37.01          86.84
    0.9134              -34.24          29.66           35.2          69.63          -7.25         -10.21          44.32          32.89          128.3          37.02          86.85
    0.9615              -34.26          29.64           35.2          69.62         -7.244          -10.2           44.2          32.86          128.3          37.04          86.86
      1.01              -34.27          29.63          35.19          69.61         -7.238          -10.2          44.07          32.82          128.3          37.05          86.87
     1.058              -34.29          29.61          35.19           69.6         -7.231         -10.19          43.92          32.79          128.3          37.07          86.89
     1.106              -34.31           29.6          35.18          69.58         -7.224         -10.19          43.76          32.74          128.3          37.09           86.9
     1.154              -34.33          29.58          35.17          69.57         -7.215         -10.18          43.58           32.7          128.3          37.11          86.92
     1.202              -34.35          29.55          35.17          69.55         -7.206         -10.17          43.38          32.64          128.3          37.14          86.94
      1.25              -34.37          29.53          35.16          69.53         -7.195         -10.17          43.15          32.58          128.3          37.16          86.97
